<svg xmlns="http://www.w3.org/2000/svg" width="139" height="149"><path fill="#FCFEFE" d="M0 0h139v149H0z"/><path fill="#2393CF" d="m24 44 29.125-.25 9.106-.11q3.638-.018 7.277-.03l3.709-.063c14.82-.006 29.88 4.138 40.904 14.45 9.54 10.174 14.315 22.307 14.086 36.237-.922 12.318-5.978 23.082-14.894 31.641-13.611 11.384-29.721 14.33-46.942 14.223l-2.652-.005c-2.76-.005-5.52-.018-8.282-.03q-2.829-.008-5.658-.014Q42.89 140.032 36 140l2.97-5.94q1.126-2.253 2.237-4.513c6.821-13.253 6.821-13.253 13.358-15.383 5.647-.835 11.169-.524 16.844-.19 8.249.083 15.103-3.05 21.591-7.974 4.733-5.057 5.366-10.74 5.277-17.402-.605-5.675-3.102-9.396-7.027-13.41-9.547-6.426-19.529-6.337-30.687-6.25l-3.374.013q-4.095.02-8.189.049l-1 10h27l-2 5-.85 2.404C69.535 93.368 66.42 99.9 60 104c-11.284 3.205-24.91.807-36 0z"/><path fill="#2695D0" d="M24 7h99c-1.018 4.07-2.283 6.198-4.625 9.625l-1.977 2.914-1.167 1.59c-1.329 1.91-1.329 1.91-2.343 4.36-1.654 3.202-3.101 5.199-5.888 7.511-6.19 1.448-12.263 1.19-18.586 1.012q-2.739-.024-5.478-.036c-4.792-.032-9.58-.126-14.37-.231-4.89-.096-9.78-.128-14.671-.169a2028 2028 0 0 1-21.365-.304l-2.28-.036c-5.134-.12-5.134-.12-6.25-1.236z"/><path fill="#3694C6" d="M25 8h98c-1.91 4.777-3.338 6.627-7 10 0-3 0-3 1-8L25 9z"/><path fill="#4CA0CC" d="M41 131c.625 1.813.625 1.813 1 4l-2 3q8.725-.141 17.45-.317 2.963-.057 5.927-.105c2.852-.046 5.704-.104 8.557-.164l2.643-.035c5.028-.119 9.63-.702 14.51-1.944 2.335-.53 4.527-.589 6.913-.435-8.32 5.546-19.956 5.158-29.629 5.098l-2.652-.005c-2.76-.005-5.52-.018-8.282-.03q-2.829-.008-5.658-.014Q42.89 140.032 36 140q.965-1.97 1.938-3.937l1.09-2.215C40 132 40 132 41 131"/><path fill="#4496C3" d="M89 110v2l-4 1v3c-7.387.995-14.616 1.118-22.062 1.063l-3.49-.014Q55.222 117.03 51 117l1-2 1.877-.06c2.854-.096 5.707-.206 8.56-.315.974-.03 1.948-.062 2.952-.094 10.171-.405 10.171-.405 19.738-3.599C87 110 87 110 89 110"/><path fill="#3B90BE" d="m106 29 3 1-2 3c-2.604.28-4.967.372-7.57.328l-2.288-.006a558 558 0 0 1-4.807-.04c-2.43-.032-4.858-.042-7.288-.048l-4.68-.03-2.176-.014C73.392 33.124 68.754 32.666 64 32v-1h42z"/><path fill="#3293C8" d="M124 75c2.734 2.734 2.953 4.77 3.098 8.578l-.035 2.672-.028 2.703L127 91c-2-3.75-2-3.75-2-6h-3v-2l-2-2h2z"/><path fill="#3995C7" d="m120 110 3 1c-1.45 4.108-3.454 7.469-6 11h-1c-.25-2.25-.25-2.25 0-5a91 91 0 0 1 4-4z"/><path fill="#479BC7" d="M96 135c-2.585 1.724-4.038 2.447-6.937 3.188l-2.028.542c-2.282.303-3.855-.042-6.035-.73 4.614-3.076 9.55-3.165 15-3"/><path fill="#3C96C4" d="M110 123h4c-1.453 3.83-3.429 5.12-7 7 .75-4.75.75-4.75 3-7"/><path fill="#3897C4" d="M89 110v2l-4 1v3h-7c7.2-6 7.2-6 11-6"/><path fill="#4E9EC9" d="M99 86h1v16h-3z"/><path fill="#3095C6" d="M108 20h2v4h2l-2 5h-1z"/><path fill="#3192C6" d="M122 70c2 3 2 3 1.625 5.688L123 78c-2-2-2-2-2.187-4.562C121 71 121 71 122 70"/></svg>